<svg version="1.0" xmlns="http://www.w3.org/2000/svg" width="255.000000pt" height="255.000000pt" viewBox="0 0 255.000000 255.000000" preserveAspectRatio="xMidYMid meet" style="width: 210.368px; height: auto;">
  <style>
    :root { fill: #000000; }
    @media (prefers-color-scheme: dark) {
      :root { fill: #ffffff; }
    }
  </style>
  <g transform="translate(0.000000,255.000000) scale(0.100000,-0.100000)" stroke="none"> <path d="M925 1901 c-162 -47 -304 -148 -493 -352 -63 -68 -72 -81 -62 -98 8 -17 1 -34 -44 -103 -130 -202 -199 -347 -227 -485 -14 -70 -5 -93 37 -93 28 0 30 -10 10 -48 -8 -15 -21 -53 -29 -83 -14 -53 -13 -57 9 -100 19 -37 23 -41 29 -24 22 67 84 223 122 304 48 105 52 126 24 141 -27 14 -26 14 -66 -21 -20 -18 -38 -29 -41 -26 -7 7 35 108 88 212 48 95 194 316 249 379 22 25 37 50 34 59 -12 29 205 198 315 245 144 62 295 55 448 -21 45 -23 82 -44 82 -47 0 -13 -129 -140 -143 -140 -9 0 -24 14 -32 31 -20 38 -89 69 -155 69 -41 0 -55 -5 -86 -32 -34 -30 -36 -35 -31 -76 3 -26 13 -53 25 -65 25 -24 96 -36 160 -26 55 8 64 4 34 -17 -31 -21 -30 -91 0 -129 28 -36 28 -81 0 -127 -24 -38 -42 -51 -207 -154 -237 -146 -328 -241 -422 -441 -48 -103 -79 -228 -89 -361 l-7 -82 44 0 c43 1 45 2 68 50 31 64 45 64 36 0 l-7 -50 30 0 c17 0 33 4 36 8 3 5 8 50 12 100 6 81 5 95 -11 112 -26 29 -50 25 -83 -16 -16 -20 -32 -32 -35 -27 -10 16 33 159 73 241 91 190 193 295 425 436 179 109 232 175 215 266 -5 25 -5 48 -2 52 4 4 32 -9 62 -28 30 -20 67 -40 83 -46 30 -11 33 -24 11 -53 -8 -11 -26 -55 -39 -98 -28 -89 -33 -186 -11 -238 18 -43 7 -107 -31 -185 -27 -56 -85 -114 -113 -114 -31 0 -227 -74 -266 -101 -63 -43 -120 -113 -164 -202 -48 -95 -49 -107 -11 -107 25 0 32 8 62 67 19 39 58 92 90 124 83 83 248 159 176 80 -53 -58 -97 -166 -97 -238 0 -31 2 -33 34 -33 l34 0 12 68 c10 59 18 78 59 128 65 80 121 108 226 112 70 3 91 0 164 -28 130 -48 211 -94 331 -191 108 -87 111 -89 162 -89 l53 1 -45 40 c-141 127 -364 274 -478 317 -51 19 -88 25 -154 26 -49 0 -88 3 -88 5 0 2 13 20 29 40 38 48 68 108 76 154 4 21 10 37 14 35 20 -10 324 -216 361 -246 81 -65 220 -205 287 -289 36 -46 71 -83 78 -83 7 0 18 7 25 15 17 21 6 40 -95 168 -120 151 -150 176 -506 432 -146 105 -159 121 -159 194 0 104 45 211 109 258 20 15 72 29 187 48 87 15 186 36 219 46 68 21 116 24 132 8 6 -6 23 -9 39 -7 40 4 42 34 9 105 -73 154 -202 228 -478 272 -105 17 -123 23 -170 57 -70 51 -169 98 -246 118 -83 21 -228 20 -306 -3z m731 -251 c143 -23 214 -47 297 -104 60 -41 90 -77 51 -62 -10 4 -64 14 -119 23 -77 11 -148 14 -305 9 -113 -3 -214 -7 -225 -8 -14 -2 -21 3 -23 17 -2 15 18 41 68 89 65 63 73 68 103 62 17 -4 86 -16 153 -26z m-514 -38 c27 -23 4 -44 -46 -40 -31 2 -42 8 -45 22 -8 43 51 54 91 18z m118 -107 c0 -8 -4 -15 -10 -15 -5 0 -10 7 -10 15 0 8 5 15 10 15 6 0 10 -7 10 -15z m566 -67 c52 -6 94 -14 94 -17 0 -13 -279 -54 -392 -59 -98 -4 -122 -2 -143 12 -39 25 -33 54 13 61 20 4 44 8 52 10 39 8 292 4 376 -7z" class=""></path> </g> </svg>